<svg xmlns="http://www.w3.org/2000/svg" width="205.26" height="205.611" viewBox="0 0 205.26 205.611">
  <g id="Group_538" data-name="Group 538" transform="translate(-1486.937 -3796)">
    <path id="Path_173" data-name="Path 173" d="M102.632,206.111A102.806,102.806,0,1,0,0,103.306,102.719,102.719,0,0,0,102.632,206.111" transform="translate(1486.937 3795.5)" fill="#13b5ea"/>
    <path id="Path_174" data-name="Path 174" d="M32.188,40.943,49.7,23.348a3.144,3.144,0,0,0-4.465-4.41l-17.5,17.517L10.16,18.906A3.143,3.143,0,0,0,5.745,23.38L23.258,40.915,5.754,58.465a3.144,3.144,0,1,0,4.406,4.483L27.709,45.39,45.19,62.88a3.138,3.138,0,1,0,4.5-4.378l-17.5-17.577m104.117.014a5.7,5.7,0,1,1,.014,0m-10.822,0a16.514,16.514,0,1,1,16.517,16.544,16.549,16.549,0,0,1-16.517-16.544m-6.5,0a23.015,23.015,0,1,0,23.015-23.047,23.066,23.066,0,0,0-23.015,23.047m-1.632-22.659h-.96A13.032,13.032,0,0,0,108.368,21a3.181,3.181,0,0,0-3.08-2.468,3.108,3.108,0,0,0-3.108,3.126l.009,38.823a3.14,3.14,0,0,0,6.27-.009V36.6c0-7.952.731-11.169,7.532-12.02a10.852,10.852,0,0,1,1.325-.064,3.1,3.1,0,0,0,3.181-3.085,3.153,3.153,0,0,0-3.153-3.144M57.1,37.15c0-.091.009-.183.014-.265a16.622,16.622,0,0,1,32.288.251H57.1Zm38.723-.594a22.9,22.9,0,0,0-35.83-14.378,23.058,23.058,0,0,0,10.516,41.7,21.68,21.68,0,0,0,8.272-.548,22.691,22.691,0,0,0,6.883-2.943,24.854,24.854,0,0,0,5.9-5.585,1.194,1.194,0,0,1,.1-.123,3.435,3.435,0,0,0-.352-4.826,3.138,3.138,0,0,0-4.634.713c-.329.475-.7.96-1.1,1.44a18.131,18.131,0,0,1-4.543,3.665,16.573,16.573,0,0,1-7.724,1.951A16.582,16.582,0,0,1,56.858,43.927l-.046-.48H89.58c4.488-.1,6.9-3.277,6.234-6.9Z" transform="translate(1504.682 3857.589)" fill="#fff"/>
  </g>
</svg>
